<svg width="27" height="28" viewBox="0 0 27 28" fill="none" xmlns="http://www.w3.org/2000/svg">
<path d="M20.6096 6.82831C24.5019 10.7206 24.5019 17.0314 20.6096 20.9237C16.7172 24.816 10.4065 24.816 6.51422 20.9237C2.62189 17.0313 2.62189 10.7206 6.51422 6.82831C10.4066 2.93597 16.7173 2.93597 20.6096 6.82831" stroke="#53B175" stroke-width="1.66116" stroke-linecap="round" stroke-linejoin="round"/>
<path d="M19.882 21.5816C18.2928 19.9082 16.0514 18.8595 13.5618 18.8595C11.0723 18.8595 8.83087 19.9082 7.2417 21.5827" stroke="#53B175" stroke-width="1.66116" stroke-linecap="round" stroke-linejoin="round"/>
<path d="M15.7639 9.80578C16.98 11.0219 16.98 12.9937 15.7639 14.2098C14.5477 15.4259 12.576 15.4259 11.3599 14.2098C10.1437 12.9937 10.1437 11.0219 11.3599 9.80578C12.576 8.58964 14.5477 8.58964 15.7639 9.80578" stroke="#53B175" stroke-width="1.66116" stroke-linecap="round" stroke-linejoin="round"/>
</svg>
