<svg width="30" height="30" viewBox="0 0 30 30" fill="none" xmlns="http://www.w3.org/2000/svg">
<path d="M22.637 23.3869H14.9584V18.2678H13.6786V23.3869H9.83933V18.2678H8.55957V23.3869C8.55957 23.7263 8.6944 24.0518 8.9344 24.2918C9.17441 24.5318 9.49992 24.6666 9.83933 24.6666H22.637C22.9764 24.6666 23.3019 24.5318 23.5419 24.2918C23.7819 24.0518 23.9167 23.7263 23.9167 23.3869V18.2678H22.637V23.3869Z" fill="#53B175"/>
<path d="M26.3418 12.6817L23.7311 7.46027C23.6252 7.24705 23.4618 7.06762 23.2595 6.94214C23.0571 6.81667 22.8238 6.75013 22.5857 6.75H9.89049C9.6524 6.75013 9.41906 6.81667 9.21672 6.94214C9.01438 7.06762 8.85105 7.24705 8.7451 7.46027L6.13438 12.6817C6.04525 12.8605 5.99923 13.0578 6.00001 13.2576V15.2284C5.99943 15.5274 6.10357 15.8172 6.29436 16.0475C6.57632 16.3707 6.92457 16.6294 7.31543 16.8061C7.7063 16.9828 8.13061 17.0732 8.55953 17.0713C9.25942 17.0724 9.93795 16.8304 10.4792 16.3866C11.0204 16.8306 11.6988 17.0733 12.3988 17.0733C13.0989 17.0733 13.7772 16.8306 14.3185 16.3866C14.8597 16.8306 15.5381 17.0733 16.2381 17.0733C16.9381 17.0733 17.6165 16.8306 18.1577 16.3866C18.699 16.8306 19.3774 17.0733 20.0774 17.0733C20.7774 17.0733 21.4558 16.8306 21.997 16.3866C22.6012 16.8827 23.3741 17.1252 24.1534 17.0631C24.9326 17.001 25.6574 16.6393 26.1755 16.0539C26.3686 15.8245 26.475 15.5346 26.4762 15.2348V13.2576C26.477 13.0578 26.431 12.8605 26.3418 12.6817ZM23.9167 15.7915C23.6434 15.7909 23.3742 15.7249 23.1315 15.5991C22.8889 15.4734 22.6798 15.2914 22.5217 15.0685L21.997 14.3518L21.4787 15.0685C21.3177 15.288 21.1071 15.4665 20.8642 15.5896C20.6213 15.7126 20.3529 15.7767 20.0806 15.7767C19.8083 15.7767 19.5398 15.7126 19.2969 15.5896C19.054 15.4665 18.8435 15.288 18.6825 15.0685L18.1577 14.3518L17.6394 15.0685C17.4784 15.288 17.2679 15.4665 17.025 15.5896C16.7821 15.7126 16.5136 15.7767 16.2413 15.7767C15.969 15.7767 15.7005 15.7126 15.4576 15.5896C15.2147 15.4665 15.0042 15.288 14.8432 15.0685L14.3185 14.3518L13.8002 15.0685C13.6391 15.288 13.4286 15.4665 13.1857 15.5896C12.9428 15.7126 12.6743 15.7767 12.402 15.7767C12.1297 15.7767 11.8613 15.7126 11.6184 15.5896C11.3755 15.4665 11.165 15.288 11.0039 15.0685L10.4792 14.3518L9.95447 15.0685C9.7964 15.2914 9.58733 15.4734 9.34469 15.5991C9.10204 15.7249 8.83284 15.7909 8.55953 15.7915C8.31839 15.7944 8.0794 15.7457 7.85866 15.6486C7.63792 15.5515 7.44053 15.4082 7.27977 15.2284V13.2576L9.89049 8.02976H22.5857L25.1964 13.2512V15.2092C25.0366 15.3915 24.8399 15.5377 24.6192 15.6381C24.3986 15.7385 24.1591 15.7908 23.9167 15.7915Z" fill="#53B175"/>
</svg>
