<svg width="28" height="27" viewBox="0 0 28 27" fill="none" xmlns="http://www.w3.org/2000/svg">
<path d="M21.8428 18.8236H10.5602C9.5436 18.8236 8.65765 18.1314 8.4118 17.1458L7.98543 15.4404L5.23123 4.42688H3.01636" stroke="white" stroke-width="1.66116" stroke-linecap="round" stroke-linejoin="round"/>
<path d="M5.78491 6.64172H21.8428C22.4541 6.64172 22.9502 7.13786 22.9502 7.74916V11.304C22.9502 13.0494 21.5991 14.4979 19.8571 14.6186L7.98428 15.4403" stroke="white" stroke-width="1.66116" stroke-linecap="round" stroke-linejoin="round"/>
<path d="M10.7596 22.157C10.5304 22.1581 10.3455 22.3441 10.3455 22.5734C10.3455 22.8026 10.5315 22.9887 10.7607 22.9876C10.99 22.9876 11.176 22.8015 11.176 22.5723C11.176 22.343 10.99 22.157 10.7596 22.157Z" fill="white" stroke="white" stroke-width="1.66116"/>
<path d="M20.2936 22.157C20.0643 22.1581 19.8794 22.3441 19.8794 22.5734C19.8794 22.8026 20.0654 22.9887 20.2947 22.9876C20.5239 22.9876 20.71 22.8015 20.71 22.5723C20.71 22.343 20.5239 22.157 20.2947 22.157" fill="white"/>
<path d="M20.2936 22.157C20.0643 22.1581 19.8794 22.3441 19.8794 22.5734C19.8794 22.8026 20.0654 22.9887 20.2947 22.9876C20.5239 22.9876 20.71 22.8015 20.71 22.5723C20.71 22.343 20.5239 22.157 20.2947 22.157" stroke="white" stroke-width="1.66116"/>
</svg>
