<svg width="27" height="28" viewBox="0 0 27 28" fill="none" xmlns="http://www.w3.org/2000/svg">
<path d="M16.3946 17.0759C16.9487 17.0759 17.4973 16.9668 18.0091 16.7548C18.521 16.5428 18.9861 16.232 19.3778 15.8402C19.7696 15.4485 20.0804 14.9834 20.2924 14.4715C20.5044 13.9597 20.6135 13.4111 20.6135 12.857C20.6135 12.303 20.5044 11.7544 20.2924 11.2425C20.0804 10.7306 19.7696 10.2656 19.3778 9.8738C18.9861 9.48203 18.521 9.17127 18.0091 8.95925C17.4973 8.74723 16.9487 8.6381 16.3946 8.6381C15.2757 8.6381 14.2026 9.0826 13.4114 9.8738C12.6202 10.665 12.1757 11.7381 12.1757 12.857C12.1757 13.9759 12.6202 15.049 13.4114 15.8402C14.2026 16.6314 15.2757 17.0759 16.3946 17.0759ZM20.8385 16.3067L23.3558 18.824C23.4229 18.8889 23.4764 18.9665 23.5132 19.0523C23.55 19.1381 23.5694 19.2304 23.5701 19.3238C23.5708 19.4171 23.553 19.5097 23.5176 19.5961C23.4822 19.6825 23.4299 19.761 23.3638 19.8269C23.2978 19.8929 23.2192 19.9451 23.1328 19.9804C23.0463 20.0157 22.9537 20.0334 22.8604 20.0325C22.767 20.0316 22.6748 20.0122 22.589 19.9753C22.5032 19.9383 22.4257 19.8847 22.3609 19.8175L19.8436 17.3002C18.7132 18.1777 17.291 18.5913 15.8664 18.4571C14.4418 18.3228 13.1219 17.6506 12.1754 16.5774C11.2289 15.5043 10.727 14.1107 10.7718 12.6805C10.8166 11.2502 11.4048 9.89086 12.4166 8.87904C13.4285 7.86722 14.7878 7.27903 16.2181 7.23421C17.6483 7.18939 19.0419 7.69131 20.115 8.63779C21.1882 9.58427 21.8604 10.9042 21.9947 12.3288C22.1289 13.7534 21.7153 15.1756 20.8378 16.306L20.8385 16.3067Z" fill="#53B175"/>
<rect x="3.63623" y="7.23145" width="6.22641" height="1.68702" rx="0.843511" fill="#53B175"/>
<rect x="3.63623" y="12.4617" width="4.54528" height="1.68702" rx="0.843511" fill="#53B175"/>
<rect x="3.63623" y="17.6921" width="6.22641" height="1.68702" rx="0.843511" fill="#53B175"/>
</svg>
