<svg width="27" height="28" viewBox="0 0 27 28" fill="none" xmlns="http://www.w3.org/2000/svg">
<path d="M19.0435 5.57022C19.6482 5.56971 20.247 5.68993 20.8046 5.92383C21.3623 6.15773 21.8676 6.50061 22.291 6.93237C23.1635 7.81808 23.6525 9.01143 23.6525 10.2547C23.6525 11.4979 23.1635 12.6913 22.291 13.577L13.6863 22.2898L5.08146 13.577C4.20901 12.6913 3.71997 11.4979 3.71997 10.2547C3.71997 9.01143 4.20901 7.81808 5.08146 6.93237C5.50513 6.50092 6.01053 6.15822 6.56812 5.92429C7.12572 5.69035 7.72434 5.56986 8.32902 5.56986C8.9337 5.56986 9.53233 5.69035 10.0899 5.92429C10.6475 6.15822 11.1529 6.50092 11.5766 6.93237L13.6863 9.09187L15.7876 6.94898C16.2098 6.51208 16.7157 6.1648 17.2751 5.9279C17.8345 5.691 18.436 5.56934 19.0435 5.57022ZM19.0435 3.90906C18.2176 3.90836 17.3998 4.07256 16.6382 4.39204C15.8766 4.71152 15.1864 5.17985 14.6082 5.76956L13.6863 6.6998L12.7643 5.76956C12.1854 5.18091 11.495 4.7134 10.7335 4.39428C9.97206 4.07515 9.15467 3.9108 8.32902 3.9108C7.50338 3.9108 6.68599 4.07515 5.92451 4.39428C5.16303 4.7134 4.47269 5.18091 3.89373 5.76956C2.71587 6.9686 2.05591 8.58219 2.05591 10.263C2.05591 11.9438 2.71587 13.5574 3.89373 14.7564L13.6863 24.6735L23.4788 14.7564C24.6566 13.5574 25.3166 11.9438 25.3166 10.263C25.3166 8.58219 24.6566 6.9686 23.4788 5.76956C22.9 5.1806 22.2097 4.71276 21.4482 4.39334C20.6867 4.07391 19.8693 3.90929 19.0435 3.90906Z" fill="#53B175"/>
</svg>
