<?xml version="1.0" encoding="utf-8"?>
<!-- Generator: Adobe Illustrator 26.1.0, SVG Export Plug-In . SVG Version: 6.00 Build 0)  -->
<svg version="1.1" id="Layer_1" xmlns="http://www.w3.org/2000/svg" xmlns:xlink="http://www.w3.org/1999/xlink" x="0px" y="0px"
	 viewBox="0 0 64 64" style="enable-background:new 0 0 64 64;" xml:space="preserve">
<style type="text/css">
	.st0{fill:#4BAA44;}
	.st1{fill:#23681C;}
	.st2{fill:#357553;}
	.st3{fill:#29513C;}
	.st4{fill:#DAE500;}
	.st5{fill:#A8BF00;}
	.st6{fill:#FF7122;}
	.st7{fill:#E54C00;}
	.st8{fill:#FA0D11;}
	.st9{fill:#C4001C;}
	.st10{fill:#FFB208;}
	.st11{fill:#F49000;}
	.st12{fill:#FF574A;}
	.st13{fill:#ED251B;}
	.st14{fill:#FFE600;}
	.st15{fill:#F2C300;}
</style>
<g>
	<g>
		<path class="st0" d="M24,3.1c-0.3-0.4-0.5-0.8-0.8-1.2c0,0-0.6,1.1-0.7,1.1c-0.5,0.9-0.8,2-1,3c-0.2,1.1-0.2,2.3,0.2,3.4
			c0.4,1.2,1.1,2.2,2,3.1c0.5,0.6,1.1,1.2,1.7,1.8c0.4,0.4,0.9,0.9,1.4,1.2c0.7,0.3,1.2,0.2,1.8-0.2c1.2-1,1.7-2.4,1.3-3.9
			c-0.3-1.1-0.8-2.1-1.6-3.1c-0.9-1.1-1.8-2.1-2.7-3.2C25.1,4.5,24.5,3.8,24,3.1z"/>
		<path class="st1" d="M22.5,3.1c0-0.1,0.7-1.2,0.7-1.1c0.1,0.1,0.6,3.8,1.2,5.9c0.3,1,0.9,2.8,1.3,3.8c0.4,0.9,1.1,2.5,1.1,4
			c-0.5-0.3-1-0.8-1.4-1.2c-0.6-0.6-1.2-1.2-1.7-1.8c-0.9-0.9-1.6-1.9-2-3.1c-0.4-1.1-0.4-2.3-0.2-3.4C21.8,5,22.1,4,22.5,3.1z"/>
	</g>
	<g>
		<path class="st2" d="M35.3,12.9c1.9-1.7,4.1-3,6.6-3.7c3.7-1,7.9,0,11,2.5c2.2,1.7,3.8,3.9,5.4,6.2c0.8,1.2,1.9,2.2,2.5,3.6
			c-0.5-0.2-1-0.7-1.5-1c-1.8-1.3-3.7-2.6-5.9-3.1c-2.2-0.5-4.5-0.2-6.7,0.1c-1.2,0.1-2.3,0.3-3.5,0.2c-2.6-0.1-4.8-2-5.9-4.2
			c-1.9,1-3.5,2.4-5,3.9c-1.6,1.7-2.9,3.7-3.8,5.8c0.3-1.3,0.9-2.5,1.5-3.7C31.4,17,33.2,14.8,35.3,12.9z"/>
		<path class="st3" d="M54,14.8c-1.4-1.1-2.8-2.2-4.5-3c-5-2.2-6.8-1.8-9-1.4c-1.7,0.3-4,1.2-5.2,2.4c-2.1,1.9-3.9,4.1-5.2,6.6
			c-0.6,1.2-1.2,2.4-1.5,3.7c0.9-2.1,2.2-4.1,3.8-5.8c1.5-1.5,3.1-2.9,5-3.9c2.6-1.3,5.3-1.7,7.4-1.5c4.2,0.4,8.7,3,10.2,4.1
			c1.3,1,2.8,2.2,5.9,5.3C60.6,21.2,56.8,17,54,14.8z"/>
	</g>
	<g>
		<path class="st4" d="M13.9,14.8c3.9-0.1,7.8,1.4,10.7,3.8c0.9,0.8,1.8,1.5,2.5,2.5c-1-0.9-1.9-1.7-3.1-2.4c-1.2-0.7-2.6-1.3-4-1.6
			c-0.7-0.2-1.3-0.3-2-0.3c-0.1,0.3-0.1,0.7-0.3,1c-0.4,1-1.2,2-2.2,2.5c-1.6,0.8-3.5,0.7-5.3,1c-1.5,0.2-2.9,0.8-4,1.7
			c-0.9,0.7-1.6,1.5-2.4,2.3c-0.1,0.1-0.3,0.2-0.5,0.3c0.1-0.3,0.2-0.5,0.2-0.8c1-2.3,1.6-4.8,3.4-6.8C8.5,16.2,11.1,15,13.9,14.8z"
			/>
		<path class="st5" d="M3.3,25.6C7.8,16.4,18,16.7,18,16.7c0.7,0,1.4,0.2,2,0.3c1.4,0.3,2.8,0.9,4,1.6c1.2,0.7,2.1,1.5,3.1,2.4
			c-0.7-0.9-1.6-1.7-2.5-2.5c-1.8-1.4-4-2.6-6.3-3.2c-2.6-0.7-5.3-0.3-7.3,1C8.6,18,5.3,20.8,3.3,25.6"/>
	</g>
	<g>
		<path class="st6" d="M28.3,50.5c-0.3,0.7-1.1,2.5-3,4.4c-1.5,1.5-3.5,2.6-5.1,4c-0.7,0.6-1.2,1-2.1,1.9c0.1,0,1.7,1.9,5.6,1.2
			c1.5-0.3,2.9-1.2,3.8-2.4c0.7-0.9,1.1-1.9,1.4-3C29.6,53.4,28.5,50.9,28.3,50.5z"/>
		<path class="st7" d="M18.1,60.8c0.9-0.8,1.4-1.2,2.1-1.9c1.6-1.4,3.6-2.5,5.1-4c1.9-1.9,2.7-3.6,3-4.4c0,0,0.5,5.3-4,7.4
			C21.5,59.2,20.1,59.8,18.1,60.8z"/>
	</g>
	<g>
		<path class="st8" d="M33.1,19.7c0.9-0.3,1.9,0,2.8,0.3c2,0.8,4.2,1.2,6.3,1.2c2.6-0.1,5.3-0.4,7.8,0.4c1.9,0.6,3.4,2.1,4.6,3.6
			c1.7,2.3,2.5,5.2,2.7,8c0.1,1.9,0,3.9-0.7,5.7c-1,2.9-2.8,5.4-5.3,7.2c-2.1,1.5-4.7,2.3-7.2,2.8c-2.6,0.5-5.3,0.7-7.8,1.5
			c-0.1,0.1-0.3,0.1-0.4,0.1c-0.5,0.2-1,0.4-1.5,0.2c-1.5-0.5-1.1-2.6-0.9-3.8c0.3-1.7,0.9-3.4,1.4-5.1c0.8-2.5,1.6-5.1,1.7-7.7
			c0-0.7,0-1.5-0.1-2.2c-0.1-2-0.7-4-1.6-5.8c-0.4-0.9-0.9-1.8-1.4-2.6c-0.5-0.8-1.2-1.6-1.3-2.5C32.2,20.4,32.6,19.9,33.1,19.7z"/>
		<path class="st9" d="M54.6,25.3c-1.2-1.6-2.7-3-4.6-3.6c-0.1,0-0.2-0.1-0.3-0.1c0.8,0.2,1.8,2.1,2.2,2.7c2.8,4.3,2.7,9.7,0.4,14.3
			c-1.1,2.2-2.7,4.2-4.7,5.8c-2.3,1.9-5.2,2.2-7.6,3.8c-1.1,0.7-2.3,1.5-3.4,2.2c4.8-0.9,10.4-1.2,14.5-4.1c2.5-1.7,4.3-4.3,5.3-7.2
			c0.7-1.8,0.8-3.8,0.7-5.7C57.2,30.5,56.3,27.6,54.6,25.3z"/>
	</g>
	<g>
		<path class="st10" d="M32.3,32.6c-0.7-2.5-2-4.8-3.6-6.7c-1.2-1.4-2.6-2.7-4.1-3.7c-1-0.6-2.1-1.2-3.3-1.1
			c-0.7,0.1-0.9,0.8-1.3,1.2c-0.9,1.2-2.4,1.8-3.7,2.3c-1.6,0.6-3.3,1.1-4.9,1.7c-2,0.8-3.9,1.9-5.2,3.6C4.6,31.9,4,34.4,4,36.8
			c0.2,4.8,2.4,9.5,6.3,12.4c1.2,0.9,2.5,1.6,3.9,2.1c4.6,1.7,10.1,0.3,13.8-2.8c1.3-1,2.4-2.3,3.1-3.8C33.2,41,33.4,36.6,32.3,32.6
			z"/>
		<path class="st11" d="M32.3,32.6c-0.7-2.5-2-4.8-3.6-6.7c-1.2-1.4-2.6-2.7-4.1-3.7c-0.9-0.6-2-1.2-3.2-1.1
			c0.8-0.1,1.7,1.6,2.1,2.2c2.3,3.2,4,6.6,4.3,10.6c0.3,4.7-2.2,9.8-6.1,12.5c-2,1.4-4.5,2-6.9,2.2c-1.2,0.1-2.4,0-3.6-0.2
			c-0.8-0.2-2.6-0.4-3.2-1.1c0.7,0.8,1.4,1.5,2.3,2.1c1.2,0.9,2.5,1.6,3.9,2.1c4.6,1.7,10.1,0.3,13.8-2.8c1.3-1,2.4-2.3,3.1-3.8
			C33.2,41,33.4,36.6,32.3,32.6z"/>
	</g>
	<g>
		<path class="st12" d="M30.7,49.9c0-0.4-0.1-0.8,0-1.2c0.4,1.1,0.6,1.6,1,2.3c0.9,1.9,4,4.7,9.8,4.1c3.7-0.3,7.3-1.4,9.8-2.7
			c-1.8,3.8-5.5,6.3-7.6,7.2c-1.9,0.8-4,0.7-5.8,0.1c-2.3-0.7-4.3-2.3-5.4-4.3C31.5,53.8,30.8,51.9,30.7,49.9z"/>
		<path class="st13" d="M30.7,48.7c-0.1,0.4,0,0.8,0,1.2c0.1,2,0.8,3.8,1.8,5.5c1.2,2,3.1,3.6,5.4,4.3c1.8,0.6,3.9,0.7,5.8-0.1
			c2.1-0.8,5.8-3.4,7.6-7.2c0,0-7.8,7.1-13.1,6C34.6,57.8,31.1,53.6,30.7,48.7z"/>
	</g>
	<g>
		<path class="st14" d="M11.4,56.9c0.1-0.7,0.8-1.5,1.5-1.7c0.9-0.4,2-0.5,3-0.5c0.7,0,1.4,0,2.1,0c0.7,0,1.7,0,2.1,0.1
			c-0.2,0.2-1.8,1.4-2.3,1.8c-0.7,0.5-1.5,0.8-2.4,1.2c-0.6,0.2-1.3,0.4-1.9,0.5c-0.4,0-0.7,0-1.1,0C11.8,58.1,11.3,57.7,11.4,56.9z
			"/>
		<path class="st15" d="M11.4,57.5c0.1,0.4,0.6,0.7,1.1,0.7c0.4,0.1,0.7,0.1,1.1,0c0.7-0.1,1.3-0.2,1.9-0.5c0.8-0.3,1.6-0.7,2.4-1.2
			c0.5-0.4,2.1-1.5,2.3-1.8C20.2,54.8,11.3,56.9,11.4,57.5z"/>
	</g>
</g>
</svg>
