<svg width="20" height="16" viewBox="0 0 20 16" fill="none" xmlns="http://www.w3.org/2000/svg">
<path d="M18.5523 4.11578L18.5519 4.11612L8.62969 14.0924C8.2593 14.4445 7.77249 14.6494 7.27943 14.6494C6.78285 14.6494 6.29898 14.442 5.9544 14.0963L0.980486 9.10606C0.643256 8.76772 0.45 8.28484 0.45 7.77459C0.45 7.28449 0.650214 6.81738 1.00192 6.44326C1.36486 6.1001 1.82912 5.90936 2.3346 5.89009C2.83086 5.89203 3.29214 6.0799 3.65594 6.42577L6.96071 9.74141L7.27943 10.0612L7.59815 9.74141L15.8768 1.4355C16.2406 1.08962 16.7019 0.901748 17.1982 0.899814C17.7062 0.919177 18.1694 1.11148 18.5309 1.47425C18.8788 1.82322 19.0828 2.28912 19.0828 2.78431C19.0828 3.29456 18.8895 3.77744 18.5523 4.11578Z" fill="#53B175" stroke="#FCFCFC" stroke-width="0.9"/>
</svg>
