<svg width="8" height="14" viewBox="0 0 8 14" fill="none" xmlns="http://www.w3.org/2000/svg">
<g clip-path="url(#clip0_51_435)">
<path d="M7.46342 12.2316C7.64595 12.4316 7.74736 12.6947 7.73722 12.9684C7.73722 13.2421 7.63581 13.4947 7.44314 13.6947C7.26061 13.8842 7.0071 14 6.74344 14C6.47979 14 6.22628 13.9053 6.03361 13.7158L0.294075 7.75789C0.20281 7.66316 0.131827 7.54737 0.0811241 7.42105C0.0304216 7.29474 0 7.1579 0 7.02105C0 6.88421 0.0304216 6.74737 0.0811241 6.61053C0.131827 6.48421 0.20281 6.36842 0.294075 6.27368L6.03361 0.315789C6.12487 0.221053 6.23642 0.136842 6.3581 0.0842105C6.48993 0.0315789 6.62176 0 6.75358 0C6.88541 0 7.02738 0.0210526 7.14907 0.0736842C7.27075 0.126316 7.3823 0.210526 7.4837 0.305263C7.57497 0.4 7.64595 0.526316 7.69665 0.652632C7.7575 0.778947 7.77778 0.915789 7.77778 1.06316C7.77778 1.2 7.74736 1.33684 7.69665 1.46316C7.64595 1.58947 7.56483 1.70526 7.46342 1.81053L2.44386 7.02105L3.39707 8L7.46342 12.2316Z" fill="#FECC4C"/>
</g>
<defs>
<clipPath id="clip0_51_435">
<rect width="7.77778" height="14" fill="white"/>
</clipPath>
</defs>
</svg>
