<svg width="23" height="25" viewBox="0 0 23 25" fill="none" xmlns="http://www.w3.org/2000/svg">
<path d="M2.5 0H13.75C14.413 0 15.0489 0.263392 15.5178 0.732233C15.9866 1.20107 16.25 1.83696 16.25 2.5V3.75C16.25 4.08152 16.1183 4.39946 15.8839 4.63388C15.6495 4.8683 15.3315 5 15 5C14.6685 5 14.3505 4.8683 14.1161 4.63388C13.8817 4.39946 13.75 4.08152 13.75 3.75V2.5H2.5V22.5H13.75V21.25C13.75 20.9185 13.8817 20.6005 14.1161 20.3661C14.3505 20.1317 14.6685 20 15 20C15.3315 20 15.6495 20.1317 15.8839 20.3661C16.1183 20.6005 16.25 20.9185 16.25 21.25V22.5C16.25 23.163 15.9866 23.7989 15.5178 24.2678C15.0489 24.7366 14.413 25 13.75 25H2.5C1.83696 25 1.20107 24.7366 0.732233 24.2678C0.263392 23.7989 0 23.163 0 22.5V2.5C0 1.83696 0.263392 1.20107 0.732233 0.732233C1.20107 0.263392 1.83696 0 2.5 0Z" fill="#FECC4C"/>
<path d="M15.9937 17.8687C16.4812 18.3562 17.2688 18.3562 17.7563 17.8687L22.2412 13.3837C22.4756 13.1493 22.6072 12.8314 22.6072 12.4999C22.6072 12.1685 22.4756 11.8506 22.2412 11.6162L17.7563 7.13116C17.5186 6.9164 17.2076 6.80115 16.8874 6.80924C16.5672 6.81732 16.2624 6.94812 16.0359 7.17459C15.8095 7.40106 15.6787 7.7059 15.6706 8.02608C15.6625 8.34626 15.7777 8.6573 15.9925 8.89491L18.3375 11.2499H7.5C7.16848 11.2499 6.85054 11.3816 6.61612 11.616C6.3817 11.8505 6.25 12.1684 6.25 12.4999C6.25 12.8314 6.3817 13.1494 6.61612 13.3838C6.85054 13.6182 7.16848 13.7499 7.5 13.7499H18.3375L15.9925 16.1049C15.7592 16.3392 15.6283 16.6564 15.6285 16.987C15.6287 17.3177 15.7601 17.6347 15.9937 17.8687Z" fill="#FECC4C"/>
</svg>
