<svg width="24" height="24" viewBox="0 0 24 24" fill="none" xmlns="http://www.w3.org/2000/svg">
<path d="M12 3C15.314 3 18 5.686 18 9" stroke="#FECC4C" stroke-width="1.5" stroke-linecap="round" stroke-linejoin="round"/>
<path d="M18 9V13" stroke="#FECC4C" stroke-width="1.5" stroke-linecap="round" stroke-linejoin="round"/>
<path d="M12 3C8.686 3 6 5.686 6 9" stroke="#FECC4C" stroke-width="1.5" stroke-linecap="round" stroke-linejoin="round"/>
<path d="M6 9V13" stroke="#FECC4C" stroke-width="1.5" stroke-linecap="round" stroke-linejoin="round"/>
<path d="M18 13C18 13.986 18.447 14.919 19.216 15.537" stroke="#FECC4C" stroke-width="1.5" stroke-linecap="round" stroke-linejoin="round"/>
<path d="M5.99994 13C5.99994 13.986 5.55294 14.919 4.78394 15.537" stroke="#FECC4C" stroke-width="1.5" stroke-linecap="round" stroke-linejoin="round"/>
<path d="M4.78411 15.537L4.47511 15.785C3.55911 16.521 4.08011 18 5.25511 18H18.7451C19.9201 18 20.4411 16.521 19.5251 15.785L19.2161 15.537" stroke="#FECC4C" stroke-width="1.5" stroke-linecap="round" stroke-linejoin="round"/>
<path d="M10.5 21H13.5" stroke="#FECC4C" stroke-width="1.5" stroke-linecap="round" stroke-linejoin="round"/>
</svg>
