<svg width="25" height="25" viewBox="0 0 25 25" fill="none" xmlns="http://www.w3.org/2000/svg">
<path d="M12.1875 0C9.77705 0 7.42072 0.714784 5.41649 2.05396C3.41227 3.39314 1.85017 5.29657 0.927724 7.52355C0.00528065 9.75052 -0.236073 12.201 0.234185 14.5652C0.704442 16.9293 1.86519 19.1009 3.56964 20.8054C5.27409 22.5098 7.4457 23.6706 9.80984 24.1408C12.174 24.6111 14.6245 24.3697 16.8515 23.4473C19.0784 22.5248 20.9819 20.9627 22.321 18.9585C23.6602 16.9543 24.375 14.598 24.375 12.1875C24.3713 8.95632 23.0861 5.85854 20.8013 3.57375C18.5165 1.28895 15.4187 0.00372185 12.1875 0ZM12.1875 5.625C12.4656 5.625 12.7375 5.70747 12.9688 5.862C13.2 6.01652 13.3803 6.23614 13.4867 6.4931C13.5931 6.75006 13.621 7.03281 13.5667 7.3056C13.5125 7.57838 13.3785 7.82895 13.1819 8.02562C12.9852 8.22229 12.7346 8.35622 12.4619 8.41048C12.1891 8.46474 11.9063 8.43689 11.6494 8.33046C11.3924 8.22402 11.1728 8.04378 11.0183 7.81252C10.8637 7.58126 10.7813 7.30938 10.7813 7.03125C10.7813 6.65829 10.9294 6.3006 11.1931 6.03688C11.4569 5.77316 11.8145 5.625 12.1875 5.625ZM13.125 18.75H12.1875C12.0644 18.7501 11.9424 18.7259 11.8286 18.6788C11.7149 18.6317 11.6115 18.5627 11.5244 18.4756C11.4374 18.3885 11.3683 18.2851 11.3212 18.1714C11.2741 18.0576 11.2499 17.9356 11.25 17.8125V12.1875C11.0014 12.1875 10.7629 12.0887 10.5871 11.9129C10.4113 11.7371 10.3125 11.4986 10.3125 11.25C10.3125 11.0014 10.4113 10.7629 10.5871 10.5871C10.7629 10.4113 11.0014 10.3125 11.25 10.3125H12.1875C12.3106 10.3124 12.4326 10.3366 12.5464 10.3837C12.6601 10.4308 12.7635 10.4998 12.8506 10.5869C12.9377 10.674 13.0067 10.7774 13.0538 10.8911C13.1009 11.0049 13.1251 11.1269 13.125 11.25V16.875C13.3736 16.875 13.6121 16.9738 13.7879 17.1496C13.9637 17.3254 14.0625 17.5639 14.0625 17.8125C14.0625 18.0611 13.9637 18.2996 13.7879 18.4754C13.6121 18.6512 13.3736 18.75 13.125 18.75Z" fill="#FECC4C"/>
</svg>
