<svg width="19" height="16" viewBox="0 0 19 16" fill="none" xmlns="http://www.w3.org/2000/svg">
<path d="M5.7 11.4H3.8C3.2775 11.4 2.85 11.8275 2.85 12.35C2.85 12.8725 3.2775 13.3 3.8 13.3H5.7C6.2225 13.3 6.65 12.8725 6.65 12.35C6.65 11.8275 6.2225 11.4 5.7 11.4ZM5.7 3.8H0.950001C0.4275 3.8 0 4.2275 0 4.75C0 5.2725 0.4275 5.7 0.950001 5.7H5.7C6.2225 5.7 6.65 5.2725 6.65 4.75C6.65 4.2275 6.2225 3.8 5.7 3.8ZM5.7 7.6H1.9C1.3775 7.6 0.950001 8.0275 0.950001 8.55C0.950001 9.0725 1.3775 9.5 1.9 9.5H5.7C6.2225 9.5 6.65 9.0725 6.65 8.55C6.65 8.0275 6.2225 7.6 5.7 7.6ZM18.05 13.3C18.05 14.345 17.195 15.2 16.15 15.2H10.45C9.405 15.2 8.55 14.345 8.55 13.3V3.8H18.05V13.3ZM8.55 0.95H10.45L11.1245 0.2755C11.2955 0.1045 11.5425 0 11.7895 0H14.8105C15.0575 0 15.3045 0.1045 15.4755 0.2755L16.15 0.95H18.05C18.5725 0.95 19 1.3775 19 1.9C19 2.4225 18.5725 2.85 18.05 2.85H8.55C8.0275 2.85 7.6 2.4225 7.6 1.9C7.6 1.3775 8.0275 0.95 8.55 0.95Z" fill="#F99B9B"/>
</svg>
